<?xml version="1.0" standalone="no"?>
<!DOCTYPE svg PUBLIC "-//W3C//DTD SVG 20010904//EN"
 "http://www.w3.org/TR/2001/REC-SVG-20010904/DTD/svg10.dtd">
<svg version="1.0" xmlns="http://www.w3.org/2000/svg"
 width="720.000000pt" height="720.000000pt" viewBox="0 0 720.000000 720.000000"
 preserveAspectRatio="xMidYMid meet">
<metadata>
Created by potrace 1.11, written by Peter Selinger 2001-2013
</metadata>
<g transform="translate(0.000000,720.000000) scale(0.100000,-0.100000)"
fill="#000000" stroke="none">
<path d="M3428 6633 c6 -2 18 -2 25 0 6 3 1 5 -13 5 -14 0 -19 -2 -12 -5z"/>
<path d="M3356 6621 c-4 -5 3 -7 14 -4 23 6 26 13 6 13 -8 0 -17 -4 -20 -9z"/>
<path d="M4065 6620 c11 -5 27 -9 35 -9 9 0 8 4 -5 9 -11 5 -27 9 -35 9 -9 0
-8 -4 5 -9z"/>
<path d="M3265 6600 c3 -5 8 -10 11 -10 2 0 4 5 4 10 0 6 -5 10 -11 10 -5 0
-7 -4 -4 -10z"/>
<path d="M4128 6603 c6 -2 18 -2 25 0 6 3 1 5 -13 5 -14 0 -19 -2 -12 -5z"/>
<path d="M3110 6540 c-9 -6 -10 -10 -3 -10 6 0 15 5 18 10 8 12 4 12 -15 0z"/>
<path d="M4310 6540 c20 -13 33 -13 25 0 -3 6 -14 10 -23 10 -15 0 -15 -2 -2
-10z"/>
<path d="M4370 6517 c40 -21 60 -27 60 -19 0 5 -15 13 -33 20 -44 16 -58 15
-27 -1z"/>
<path d="M4648 6343 c7 -3 16 -2 19 1 4 3 -2 6 -13 5 -11 0 -14 -3 -6 -6z"/>
<path d="M4790 6221 c0 -6 4 -13 10 -16 6 -3 7 1 4 9 -7 18 -14 21 -14 7z"/>
<path d="M2506 6063 c-6 -14 -5 -15 5 -6 7 7 10 15 7 18 -3 3 -9 -2 -12 -12z"/>
<path d="M2437 5973 c-4 -3 -7 -11 -7 -17 0 -6 5 -5 12 2 6 6 9 14 7 17 -3 3
-9 2 -12 -2z"/>
<path d="M2405 5919 c-4 -6 -5 -12 -2 -15 2 -3 7 2 10 11 7 17 1 20 -8 4z"/>
<path d="M5026 5917 c3 -10 9 -15 12 -12 3 3 0 11 -7 18 -10 9 -11 8 -5 -6z"/>
<path d="M5492 5843 c-10 -7 -25 -13 -34 -13 -9 0 -37 -16 -62 -35 -26 -19
-51 -35 -56 -35 -6 0 -10 -8 -10 -19 0 -10 -7 -24 -14 -31 -8 -6 -20 -28 -27
-48 -7 -20 -15 -39 -19 -42 -18 -13 -65 -249 -73 -369 -2 -31 -6 -36 -37 -44
-19 -5 -42 -18 -53 -30 -15 -18 -21 -19 -37 -9 -11 7 -35 12 -54 12 -33 0 -36
3 -47 42 -36 135 -231 393 -335 446 -22 10 -58 22 -81 26 -41 6 -45 4 -90 -41
-78 -78 -86 -92 -115 -213 -32 -131 -33 -143 -14 -159 22 -18 45 -2 57 40 7
21 16 39 21 39 4 0 8 5 8 12 0 21 65 107 81 108 20 0 63 -42 95 -92 13 -20 48
-97 78 -171 l56 -135 -7 -83 c-11 -145 -44 -161 -158 -79 -57 41 -77 50 -111
50 -23 0 -86 9 -139 20 -139 29 -168 27 -211 -12 -38 -36 -59 -99 -48 -146 8
-32 100 -165 142 -206 36 -34 136 -58 227 -55 80 3 119 -7 174 -46 25 -17 54
-35 64 -38 10 -4 17 -12 15 -18 -4 -11 -131 -64 -182 -75 -51 -11 -225 -99
-313 -158 -78 -52 -83 -54 -83 -32 0 39 -56 85 -112 92 -26 4 -48 10 -48 14 0
18 -62 32 -112 26 -75 -10 -125 -40 -162 -98 -10 -16 -27 -28 -37 -28 -12 0
-23 -10 -29 -26 -12 -30 -13 -101 -2 -106 4 -1 6 -38 4 -80 -4 -89 -16 -98
-60 -48 -27 31 -27 31 -27 203 l0 172 -66 3 c-63 3 -68 1 -110 -34 -31 -26
-45 -46 -49 -70 l-5 -33 -85 55 c-77 49 -199 114 -215 114 -6 0 -75 29 -135
58 -19 9 -55 21 -79 27 -52 12 -64 31 -26 41 15 4 42 22 59 42 l32 35 136 8
c99 5 148 12 180 26 44 20 101 76 120 119 6 13 14 24 19 24 4 0 17 21 29 47
17 37 21 60 18 102 -4 47 -10 59 -41 88 -32 28 -44 33 -87 33 -54 0 -133 -15
-162 -31 -10 -5 -43 -9 -73 -9 -57 0 -123 -29 -201 -87 -36 -27 -51 -28 -79
-7 -16 12 -20 27 -21 77 0 34 -4 74 -8 89 -6 19 -1 45 14 85 26 70 100 222
118 241 6 7 12 17 12 21 0 11 79 91 90 91 17 0 66 -68 84 -115 35 -91 64 -117
84 -77 15 26 -23 195 -59 266 -42 83 -74 114 -137 132 -74 22 -97 10 -207
-102 -93 -95 -183 -230 -221 -331 -23 -64 -31 -73 -65 -73 -16 0 -38 -6 -49
-12 -17 -11 -23 -9 -45 15 -15 15 -36 27 -51 27 -30 0 -29 -3 -43 138 -6 61
-15 122 -20 135 -5 12 -17 49 -26 82 -43 149 -142 265 -226 265 -11 0 -19 5
-19 10 0 6 -36 10 -89 10 -50 0 -93 -4 -96 -10 -3 -5 -15 -10 -25 -10 -34 0
-150 -110 -176 -167 -10 -21 -26 -51 -37 -66 -29 -43 -1 -79 35 -44 7 7 21 16
31 20 9 3 17 10 17 14 0 5 21 20 48 33 26 14 51 31 55 38 4 6 24 12 43 12 21
0 33 4 29 10 -3 6 4 10 17 10 30 0 96 -63 104 -98 3 -15 9 -36 14 -47 15 -35
19 -58 27 -170 11 -155 10 -191 -8 -212 -9 -10 -24 -41 -34 -69 -14 -41 -25
-55 -53 -68 -35 -17 -59 -13 -32 5 13 9 13 9 0 7 -8 -1 -26 9 -41 23 -24 25
-28 26 -145 24 -188 -3 -254 -35 -268 -127 -4 -26 -11 -50 -17 -53 -15 -10
-10 -74 8 -96 25 -29 74 -48 149 -55 54 -6 68 -11 82 -31 9 -13 33 -44 54 -68
41 -50 55 -94 39 -133 -9 -24 -41 -196 -41 -221 0 -6 -16 -7 -35 -4 -28 4 -35
2 -35 -10 0 -9 -4 -18 -10 -22 -5 -3 -8 7 -5 25 6 46 -36 64 -137 57 -155 -10
-233 -79 -232 -205 0 -39 -3 -58 -9 -50 -6 10 -8 9 -4 -2 2 -8 8 -15 13 -15 5
-1 31 -22 57 -48 27 -26 60 -50 75 -53 15 -3 40 -10 56 -15 40 -13 74 -11 78
3 3 8 12 5 28 -10 13 -12 27 -22 31 -22 5 0 20 -12 34 -27 24 -27 34 -63 16
-63 -5 0 -11 -9 -14 -19 -7 -27 -53 -55 -90 -54 -62 1 -97 6 -97 14 0 13 -73
78 -88 79 -7 0 -20 -4 -30 -10 -9 -5 -29 -14 -44 -20 -47 -16 -38 -57 25 -116
71 -68 115 -84 230 -84 83 0 98 3 152 31 91 46 104 67 105 169 0 81 -1 85 -32
117 -18 18 -27 33 -21 33 12 0 63 -63 63 -78 0 -5 23 -31 50 -59 l50 -51 0
-76 c0 -73 1 -76 26 -82 33 -8 154 -131 154 -156 0 -15 -57 -90 -83 -109 -5
-4 -9 -39 -9 -78 -1 -63 2 -75 23 -94 33 -31 81 -67 91 -67 5 0 7 24 6 53 -3
77 14 108 79 148 31 19 69 39 84 46 15 6 35 23 45 38 15 23 16 32 4 83 -8 31
-13 64 -11 72 4 27 54 60 91 60 58 1 157 26 186 47 24 18 31 19 81 7 30 -7 65
-20 78 -28 13 -9 31 -16 39 -16 13 0 96 -39 106 -51 3 -3 21 -15 40 -26 19
-12 50 -37 69 -57 34 -35 34 -35 20 -80 -7 -25 -17 -46 -22 -46 -4 0 -5 -4 -2
-10 4 -7 285 -10 811 -10 l805 0 -6 44 c-7 42 -5 45 38 85 25 23 60 53 79 66
18 14 38 28 43 32 39 30 209 99 265 107 25 4 53 10 63 12 13 4 17 -1 17 -26 0
-35 7 -39 69 -43 41 -2 45 0 55 30 l11 31 25 -39 c13 -21 29 -39 35 -39 6 0
18 -8 27 -19 12 -14 15 -39 14 -109 -1 -96 7 -118 49 -125 28 -5 119 -52 133
-70 7 -7 13 -49 15 -93 3 -70 6 -79 21 -76 29 5 69 60 93 126 l21 60 -23 46
c-13 25 -37 58 -54 74 -17 17 -31 35 -31 41 0 14 62 80 83 88 10 4 17 11 17
17 0 6 11 26 24 43 13 18 29 48 34 67 l10 35 1 -37 c1 -42 9 -49 59 -53 76 -5
76 -5 73 147 -3 132 -2 135 23 165 14 17 26 38 26 47 0 9 9 34 20 56 15 30 20
59 20 125 0 48 -4 94 -9 104 -5 9 -14 46 -20 82 -5 35 -14 83 -20 107 -28 107
-23 144 24 187 12 11 30 34 41 52 20 35 55 49 116 44 66 -5 189 89 154 118 -8
7 -21 41 -30 78 -28 111 -75 136 -259 139 -108 1 -130 -1 -147 -16 -11 -10
-20 -23 -20 -29 0 -6 -11 -16 -24 -22 -35 -16 -67 12 -105 93 -29 64 -31 73
-31 190 1 162 23 269 71 332 19 24 44 47 57 51 19 5 117 -28 132 -44 3 -4 21
-15 40 -25 19 -11 44 -28 55 -39 35 -32 55 -40 61 -22 9 23 -3 59 -36 112 -16
26 -35 59 -40 73 -6 14 -31 37 -55 50 -25 14 -45 27 -45 30 0 24 -221 44 -248
23z m-4016 -1534 c16 -13 2 -85 -17 -80 -8 2 -37 3 -65 4 -89 0 -148 -54 -123
-114 6 -16 21 -31 33 -35 11 -3 35 -12 51 -19 17 -7 74 -25 128 -40 80 -23 97
-31 97 -47 0 -11 14 -33 30 -50 27 -27 30 -35 30 -97 0 -80 -15 -106 -88 -149
-43 -25 -55 -27 -152 -27 -96 0 -109 2 -151 27 -46 27 -109 90 -109 108 0 5
19 19 42 30 l41 20 33 -34 c18 -19 36 -46 40 -60 7 -28 24 -36 24 -11 0 12 14
15 65 15 85 0 121 18 144 73 17 39 17 44 2 71 -9 15 -35 41 -58 58 -24 16 -43
32 -43 37 0 12 -41 6 -49 -7 -11 -19 -128 16 -156 47 -67 72 -71 81 -65 151 5
64 70 121 158 139 51 11 140 5 158 -10z m2438 -2 c17 -13 50 -26 74 -30 29 -3
51 -14 68 -32 l24 -26 -2 -247 -3 -246 -50 -35 c-48 -35 -51 -36 -145 -36 -84
0 -99 3 -130 24 -39 27 -70 57 -70 67 0 3 -8 18 -19 32 -34 49 -54 208 -37
290 6 26 5 32 -9 32 -14 0 -16 6 -11 31 3 17 6 38 6 46 0 11 7 14 20 10 16 -4
26 4 45 33 31 50 81 87 131 99 61 14 75 13 108 -12z m-1933 -18 c17 -32 4 -47
-46 -55 -41 -6 -48 -11 -58 -38 -6 -17 -10 -35 -8 -41 5 -16 20 -227 20 -275
0 -25 -3 -84 -6 -132 l-5 -88 -43 0 -43 0 -5 183 c-2 100 -4 227 -3 282 l1
100 -67 -4 -68 -3 0 44 c0 25 2 47 4 49 2 2 74 3 160 1 145 -3 157 -4 167 -23z
m211 19 c2 -7 3 -33 2 -58 -1 -25 -5 -128 -8 -231 l-6 -185 28 -45 c23 -35 37
-46 71 -55 37 -10 47 -9 84 10 74 37 77 51 83 328 5 230 6 243 24 244 26 2 29
-12 28 -108 -2 -155 3 -254 12 -233 5 11 9 43 9 72 1 28 5 55 11 58 18 11 0
-284 -21 -331 -31 -73 -120 -118 -230 -116 -84 1 -158 65 -178 153 -12 48 -15
492 -4 502 12 12 91 8 95 -5z m828 -17 c40 -13 114 -92 151 -161 21 -39 24
-59 24 -145 0 -85 -3 -107 -23 -144 -34 -64 -89 -118 -152 -149 -51 -25 -66
-27 -202 -30 l-148 -4 0 237 0 236 31 -3 c25 -2 33 2 40 21 9 23 8 23 -31 17
l-40 -6 0 73 c0 41 2 76 4 78 9 8 312 -9 346 -20z m482 20 c4 -1 5 -20 3 -43
-2 -24 -7 -170 -11 -326 l-7 -283 -44 3 -44 3 1 274 1 274 -35 -27 c-19 -14
-39 -26 -45 -26 -6 0 -11 19 -11 43 0 37 5 46 37 72 37 29 87 44 128 39 11 -1
23 -3 27 -3z m1388 -38 l0 -43 -135 0 -135 0 0 -90 0 -89 122 -3 123 -3 -3
-40 c-2 -22 -5 -41 -5 -42 -1 -1 -54 -3 -116 -5 l-115 -3 2 -128 c3 -143 -1
-167 -28 -167 -20 0 -30 26 -30 79 0 18 -10 50 -22 69 -21 34 -22 46 -21 262
0 125 3 231 6 236 3 5 84 9 181 9 l176 0 0 -42z m825 -34 c-1 -41 -2 -94 -3
-119 -2 -25 0 -138 3 -252 l6 -208 -39 0 c-39 0 -39 0 -48 48 -5 26 -8 138 -6
250 1 111 -2 202 -6 202 -17 0 -40 -36 -46 -72 -4 -21 -20 -70 -35 -110 -16
-40 -48 -125 -71 -188 -24 -63 -46 -119 -50 -124 -5 -5 -31 -3 -59 4 -45 11
-51 15 -51 38 -1 15 -7 38 -15 52 -8 14 -14 33 -15 43 0 11 -15 37 -34 59 -19
21 -41 58 -49 81 -59 171 -101 276 -106 272 -4 -2 -14 -23 -21 -45 -12 -36
-12 -45 0 -63 11 -17 15 -73 18 -234 4 -233 8 -220 -57 -207 l-31 7 0 186 c0
164 3 191 20 230 11 24 20 64 20 89 0 26 8 66 18 89 16 40 19 43 57 43 39 0
40 -1 63 -55 12 -31 22 -64 22 -75 0 -11 4 -20 9 -20 5 0 11 -10 14 -22 3 -13
19 -59 36 -103 17 -44 34 -108 37 -143 6 -52 11 -66 31 -80 14 -8 28 -23 31
-33 5 -11 44 78 111 255 57 149 108 273 112 276 4 3 36 4 71 4 l63 -2 0 -73z
m-4117 -3 c31 -37 28 -50 -18 -71 -39 -18 -41 -18 -55 1 -15 19 -14 40 5 89
11 30 30 25 68 -19z m-148 -36 c9 -5 19 -5 26 1 9 7 14 2 19 -21 4 -16 15 -36
26 -43 10 -8 16 -18 12 -23 -4 -5 -1 -3 7 4 8 6 21 12 30 11 10 0 11 -2 3 -6
-7 -2 -13 -11 -13 -19 0 -8 6 -13 13 -11 7 1 13 -11 15 -28 2 -16 8 -34 13
-39 20 -21 7 -23 -28 -6 -21 10 -80 28 -130 41 -51 12 -93 26 -93 31 0 4 -8 8
-19 8 -21 0 -36 15 -45 45 -13 44 113 87 164 55z m1930 -60 c0 -10 -4 -21 -9
-25 -12 -7 -25 31 -16 45 9 15 25 2 25 -20z"/>
<path d="M1361 4024 c0 -11 3 -14 6 -6 3 7 2 16 -1 19 -3 4 -6 -2 -5 -13z"/>
<path d="M3790 4213 c-56 -38 -78 -89 -86 -198 -5 -61 -3 -90 8 -116 9 -19 23
-52 32 -74 22 -52 72 -85 130 -85 123 0 172 75 170 256 -2 119 -31 190 -91
222 -34 18 -134 15 -163 -5z m163 -18 c24 -17 57 -65 57 -84 0 -8 -41 -54 -92
-103 l-92 -88 -53 0 -53 0 0 70 c0 76 27 165 59 194 41 37 129 42 174 11z"/>
<path d="M2810 4186 c0 -19 -5 -26 -20 -26 -18 0 -26 -24 -22 -70 0 -3 4 -81
8 -174 l7 -169 77 6 c86 6 149 32 167 69 26 54 43 111 43 143 0 19 5 35 10 35
11 0 13 39 4 64 -3 9 -12 16 -18 16 -7 0 -20 18 -30 39 -24 55 -69 81 -156 88
l-70 6 0 -27z"/>
<path d="M5070 5841 c0 -5 5 -13 10 -16 6 -3 10 -2 10 4 0 5 -4 13 -10 16 -5
3 -10 2 -10 -4z"/>
<path d="M5111 5754 c0 -11 3 -14 6 -6 3 7 2 16 -1 19 -3 4 -6 -2 -5 -13z"/>
<path d="M2271 5623 c-1 -6 -4 -20 -7 -30 -5 -17 -5 -17 6 0 6 10 9 23 6 30
-3 9 -5 9 -5 0z"/>
<path d="M5192 5520 c0 -14 2 -19 5 -12 2 6 2 18 0 25 -3 6 -5 1 -5 -13z"/>
<path d="M2241 5504 c0 -11 3 -14 6 -6 3 7 2 16 -1 19 -3 4 -6 -2 -5 -13z"/>
<path d="M5201 5474 c0 -11 3 -14 6 -6 3 7 2 16 -1 19 -3 4 -6 -2 -5 -13z"/>
<path d="M2231 5434 c0 -11 3 -14 6 -6 3 7 2 16 -1 19 -3 4 -6 -2 -5 -13z"/>
<path d="M2213 5360 c0 -25 2 -35 4 -22 2 12 2 32 0 45 -2 12 -4 2 -4 -23z"/>
<path d="M1882 5340 c0 -14 2 -19 5 -12 2 6 2 18 0 25 -3 6 -5 1 -5 -13z"/>
<path d="M1448 5103 c6 -2 18 -2 25 0 6 3 1 5 -13 5 -14 0 -19 -2 -12 -5z"/>
<path d="M5965 4333 c-25 -3 -51 -15 -73 -35 -25 -21 -37 -26 -42 -17 -5 6 -7
-19 -6 -57 1 -68 1 -69 29 -72 16 -2 35 2 43 9 13 10 15 -19 14 -237 0 -137 0
-257 0 -266 0 -15 9 -18 58 -17 49 0 121 16 83 18 -12 1 -13 48 -6 304 4 166
8 317 10 335 1 23 -2 32 -14 32 -9 0 -25 2 -36 4 -11 2 -38 1 -60 -1z m90 -50
c-2 -16 -7 -162 -11 -325 l-7 -298 -44 0 -43 0 0 276 0 276 -34 -21 c-46 -29
-56 -26 -56 11 0 24 10 42 37 70 35 36 40 38 99 38 62 0 62 0 59 -27z"/>
<path d="M5830 4309 c0 -5 5 -7 10 -4 6 3 10 8 10 11 0 2 -4 4 -10 4 -5 0 -10
-5 -10 -11z"/>
<path d="M1456 3815 c-11 -8 -17 -17 -14 -20 2 -3 13 4 23 15 21 23 18 25 -9
5z"/>
<path d="M1388 3793 c6 -2 18 -2 25 0 6 3 1 5 -13 5 -14 0 -19 -2 -12 -5z"/>
<path d="M1650 3699 c0 -5 5 -7 10 -4 6 3 10 8 10 11 0 2 -4 4 -10 4 -5 0 -10
-5 -10 -11z"/>
<path d="M2460 3378 c0 -5 60 -7 133 -6 144 1 131 6 -31 10 -56 2 -102 0 -102
-4z"/>
<path d="M2400 3369 c0 -5 5 -7 10 -4 6 3 10 8 10 11 0 2 -4 4 -10 4 -5 0 -10
-5 -10 -11z"/>
<path d="M4535 3350 c3 -5 11 -10 16 -10 6 0 7 5 4 10 -3 6 -11 10 -16 10 -6
0 -7 -4 -4 -10z"/>
<path d="M4585 3310 c3 -5 8 -10 11 -10 2 0 4 5 4 10 0 6 -5 10 -11 10 -5 0
-7 -4 -4 -10z"/>
<path d="M4670 3251 c0 -5 7 -12 16 -15 14 -5 15 -4 4 9 -14 17 -20 19 -20 6z"/>
<path d="M4741 3197 c2 -1 13 -9 24 -17 19 -14 19 -14 6 3 -7 9 -18 17 -24 17
-6 0 -8 -1 -6 -3z"/>
<path d="M2776 3175 c-58 -30 -127 -97 -124 -119 4 -27 41 -33 72 -12 13 8 25
13 27 11 2 -2 1 -48 -2 -102 -4 -54 -7 -144 -8 -200 l-1 -103 -29 0 c-44 0
-61 -10 -61 -36 0 -31 21 -36 140 -32 l95 3 0 30 c0 26 -4 30 -32 33 -28 3
-33 8 -39 39 -4 19 -3 87 2 151 12 159 11 344 -1 349 -5 1 -23 -4 -39 -12z"/>
<path d="M3126 3176 c-90 -34 -147 -131 -154 -263 -12 -221 64 -343 212 -343
67 0 96 11 136 48 45 44 71 129 77 252 6 117 -3 165 -42 225 -51 78 -146 112
-229 81z m128 -78 c14 -6 36 -32 48 -57 46 -92 23 -305 -38 -366 -44 -44 -121
-45 -162 -2 -55 58 -79 210 -48 308 17 54 57 110 86 122 26 10 88 7 114 -5z"/>
<path d="M4409 3171 c-14 -10 -67 -81 -118 -157 -52 -77 -102 -148 -111 -159
-33 -38 -43 -65 -29 -81 9 -11 38 -14 124 -14 63 0 120 -3 129 -6 13 -5 16
-22 16 -83 0 -79 9 -101 42 -101 27 0 40 35 37 108 l-3 67 30 3 c36 5 54 19
54 44 0 22 -12 27 -80 37 -3 1 -4 74 -3 162 2 94 -2 169 -8 180 -13 24 -50 24
-80 0z m11 -221 l0 -120 -73 0 c-41 0 -76 3 -79 6 -5 4 141 234 150 234 1 0 2
-54 2 -120z"/>
<path d="M3511 3171 c-9 -6 -11 -20 -6 -50 4 -22 1 -91 -5 -153 -11 -104 -11
-113 6 -125 26 -19 31 -17 79 31 74 75 153 84 199 22 16 -21 21 -42 21 -95 0
-59 -4 -72 -29 -105 -16 -21 -44 -44 -62 -52 -64 -27 -112 -16 -166 38 -23 23
-31 23 -53 -2 -17 -19 -17 -21 9 -55 42 -54 76 -68 166 -63 72 3 80 6 122 40
63 52 88 109 88 201 0 83 -25 145 -73 181 -40 29 -140 34 -189 8 -20 -11 -39
-15 -40 -10 -2 5 -1 33 2 61 l5 52 120 6 c136 6 155 12 155 44 0 14 -7 26 -17
29 -29 8 -318 5 -332 -3z"/>
<path d="M3998 2626 c-45 -34 4 -103 52 -74 26 17 26 64 1 78 -25 13 -32 12
-53 -4z"/>
<path d="M4935 2499 c-4 -6 -5 -12 -2 -15 2 -3 7 2 10 11 7 17 1 20 -8 4z"/>
<path d="M2598 2463 c7 -3 16 -2 19 1 4 3 -2 6 -13 5 -11 0 -14 -3 -6 -6z"/>
<path d="M2640 2440 c0 -5 5 -10 11 -10 5 0 7 5 4 10 -3 6 -8 10 -11 10 -2 0
-4 -4 -4 -10z"/>
<path d="M3037 2433 c-10 -17 14 -52 71 -101 52 -45 61 -58 65 -95 3 -23 10
-64 16 -92 23 -111 43 -223 48 -267 4 -44 3 -48 -16 -48 -12 0 -21 -4 -21 -10
0 -5 -9 -10 -20 -10 -46 0 -130 -43 -189 -96 -59 -54 -61 -58 -61 -106 0 -41
5 -54 29 -79 36 -36 51 -36 81 -4 35 37 47 32 49 -22 1 -26 5 -51 9 -55 5 -5
49 -15 98 -23 69 -11 105 -12 159 -4 127 19 234 59 274 102 36 39 35 117 -3
181 l-28 49 1 314 c2 278 4 316 19 333 9 11 23 20 32 21 8 1 4 5 -10 9 -32 10
-597 13 -603 3z"/>
<path d="M3715 2430 c-23 -6 -25 -8 -8 -9 13 -1 25 -10 29 -23 4 -13 7 -168 6
-345 -1 -318 -4 -351 -35 -374 -5 -3 -10 -32 -13 -63 -4 -42 -1 -64 11 -82 16
-25 108 -76 160 -88 16 -4 32 -12 35 -17 10 -15 219 -15 282 0 62 15 74 30 69
83 -4 46 8 50 49 17 44 -35 63 -31 100 21 60 84 -62 221 -240 271 -25 7 -48
15 -53 19 -7 6 0 57 25 180 6 30 13 75 15 100 10 128 20 150 102 228 62 58 73
74 61 82 -18 11 -550 11 -595 0z"/>
<path d="M2707 2422 c-9 -4 33 -6 95 -4 162 4 182 9 43 10 -66 0 -128 -3 -138
-6z"/>
<path d="M4478 2423 c45 -2 119 -2 165 0 45 1 8 3 -83 3 -91 0 -128 -2 -82 -3z"/>
<path d="M3722 2180 c0 -14 2 -19 5 -12 2 6 2 18 0 25 -3 6 -5 1 -5 -13z"/>
<path d="M2881 1534 c0 -11 3 -14 6 -6 3 7 2 16 -1 19 -3 4 -6 -2 -5 -13z"/>
<path d="M2911 1534 c0 -11 3 -14 6 -6 3 7 2 16 -1 19 -3 4 -6 -2 -5 -13z"/>
<path d="M4328 1483 c7 -3 16 -2 19 1 4 3 -2 6 -13 5 -11 0 -14 -3 -6 -6z"/>
<path d="M1978 1156 c-16 -6 -39 -27 -53 -46 -20 -28 -25 -45 -25 -97 0 -46
-4 -63 -13 -63 -22 0 -40 -44 -32 -79 4 -21 14 -33 30 -37 14 -3 24 -9 23 -13
0 -3 0 -59 1 -123 1 -138 7 -148 82 -148 87 0 89 3 89 140 0 107 2 120 18 121
14 0 14 2 -3 9 -16 7 -17 9 -3 9 9 1 23 4 32 7 13 5 15 -13 14 -127 0 -154 3
-159 89 -159 60 0 99 27 90 61 -3 10 -1 19 4 19 5 0 9 -10 9 -22 0 -41 16 -51
78 -56 51 -4 63 -1 81 17 19 19 21 32 21 148 0 69 2 124 5 121 3 -3 6 -62 8
-132 2 -149 7 -156 94 -156 82 0 85 7 84 186 -2 122 -5 154 -19 179 -25 42
-66 60 -132 58 -67 -3 -111 -3 -264 -3 -65 0 -123 -4 -130 -9 -17 -14 -65 -1
-77 21 -18 33 -2 58 36 58 61 0 90 81 40 114 -29 19 -136 21 -177 2z m150 -25
c8 -4 12 -19 10 -32 -2 -20 -8 -23 -30 -21 -54 5 -68 -12 -68 -83 l0 -64 38
-3 c32 -3 37 -7 40 -30 3 -26 1 -28 -32 -28 l-36 0 0 -141 0 -140 -52 3 -53 3
-1 135 0 135 -27 3 c-36 4 -37 39 -2 48 24 6 25 10 25 76 0 79 17 119 59 135
32 13 111 16 129 4z m128 -201 c8 -8 19 -8 38 0 36 13 79 13 128 -2 29 -9 41
-9 50 0 7 7 39 12 73 12 104 -1 115 -22 115 -209 l0 -141 -50 0 -50 0 0 135
c0 124 -2 135 -20 145 -11 6 -31 8 -45 4 l-25 -6 0 -139 0 -139 -50 0 -50 0 0
129 c0 104 -3 133 -16 145 -17 18 -20 18 -51 10 -22 -6 -23 -10 -23 -146 l0
-139 -52 3 -53 3 -3 140 c-2 77 -1 154 3 172 5 29 10 33 38 33 18 0 38 -5 43
-10z m74 -190 c0 -60 -4 -100 -10 -100 -6 0 -10 30 -10 69 0 65 8 131 16 131
2 0 4 -45 4 -100z"/>
<path d="M2191 1134 c0 -11 3 -14 6 -6 3 7 2 16 -1 19 -3 4 -6 -2 -5 -13z"/>
<path d="M3192 1137 c-7 -8 -12 -108 -13 -287 -1 -313 -5 -300 87 -300 78 0
84 10 86 143 0 62 0 120 0 130 -1 11 3 17 10 15 9 -3 14 -43 18 -137 6 -149 7
-151 80 -151 59 0 90 9 90 26 0 8 7 14 15 14 8 0 15 -7 15 -15 0 -20 40 -29
102 -23 52 5 68 18 68 56 0 12 4 22 9 22 5 0 7 -9 4 -20 -9 -34 31 -60 92 -60
84 0 87 6 87 153 0 70 4 129 9 132 5 4 9 -46 9 -122 0 -70 4 -135 9 -142 12
-18 129 -27 151 -12 23 15 20 313 -3 357 -28 54 -115 77 -198 53 -20 -7 -46
-8 -56 -4 -32 14 -94 16 -126 6 -20 -7 -34 -8 -42 -1 -12 10 -99 -1 -113 -15
-4 -3 -9 -86 -13 -183 l-5 -177 -4 130 c-2 72 -4 138 -4 147 0 9 -3 15 -8 12
-4 -3 -8 1 -8 8 -1 41 -80 88 -149 88 l-40 0 0 76 c0 53 -4 79 -13 85 -21 14
-134 11 -146 -4z m125 -117 l-2 -90 55 6 c68 7 104 -6 130 -48 17 -29 20 -51
20 -165 l0 -133 -50 0 -50 0 0 125 c0 112 -2 127 -20 145 -21 21 -46 25 -68
12 -8 -6 -13 -48 -15 -143 l-2 -134 -52 -3 -53 -3 0 260 0 261 55 0 55 0 -3
-90z m396 -89 c29 1 130 1 162 0 17 0 60 2 98 5 66 6 68 5 97 -26 l30 -32 0
-144 0 -144 -50 0 -50 0 0 125 c0 113 -2 127 -21 146 -17 17 -47 19 -66 5 -1
-1 -3 -62 -5 -136 l-3 -135 -52 -3 -53 -3 0 135 c0 128 -1 136 -21 147 -16 8
-28 8 -45 0 -24 -10 -24 -13 -24 -146 l0 -135 -50 0 -50 0 0 176 0 176 43 -6
c23 -3 50 -6 60 -5z m56 -195 c1 -63 -1 -96 -8 -96 -7 0 -11 36 -11 101 0 127
15 123 19 -5z"/>
<path d="M2831 990 c-94 -26 -111 -38 -111 -74 0 -41 20 -79 45 -86 15 -4 21
-15 23 -43 5 -60 -6 -94 -33 -101 -40 -10 -52 -97 -17 -123 19 -16 243 -18
258 -3 6 6 20 6 40 -2 42 -15 98 -3 112 25 17 34 18 72 3 100 -22 41 -92 50
-132 18 -12 -10 -31 -16 -41 -13 -16 4 -18 18 -18 146 0 77 -4 146 -8 152 -13
21 -57 22 -121 4z m89 -175 l0 -155 30 -6 c25 -6 30 -11 30 -36 l0 -29 -112 3
-113 3 -3 28 c-3 22 0 27 20 27 45 0 50 12 52 118 l2 101 -30 3 c-27 3 -31 7
-31 33 0 27 5 31 55 47 106 33 100 41 100 -137z m194 -141 c34 -33 8 -84 -42
-84 -46 0 -61 46 -29 88 13 17 52 15 71 -4z"/>
<path d="M5005 983 c-11 -3 -25 -9 -31 -14 -7 -6 -22 -5 -38 1 -68 25 -178 -5
-218 -60 -21 -29 -40 -118 -27 -126 5 -3 9 -13 9 -23 0 -10 6 -23 13 -29 14
-12 14 -121 -1 -131 -33 -22 -42 -97 -16 -141 31 -52 68 -65 181 -65 87 0 105
3 130 21 40 30 73 82 73 115 0 28 13 39 24 21 7 -11 115 3 129 17 6 6 9 58 8
125 l-2 114 33 11 c18 6 39 20 45 31 16 24 20 107 6 121 -14 14 -64 14 -91 0
-12 -7 -27 -9 -32 -6 -15 9 -89 12 -102 4 -6 -4 -18 -1 -25 7 -15 14 -31 16
-68 7z m45 -68 c0 -28 -4 -35 -20 -35 -17 0 -20 -7 -20 -49 0 -77 -41 -113
-140 -123 -14 -2 -26 -10 -28 -20 -3 -13 7 -18 45 -23 126 -16 157 -38 154
-112 -3 -89 -52 -126 -166 -126 -102 0 -155 33 -155 98 0 26 7 43 25 59 23 21
24 27 14 50 -11 23 -9 30 8 54 l20 27 -24 25 c-46 49 -42 124 9 172 26 24 38
28 88 28 32 0 70 -4 84 -10 18 -7 33 -5 53 5 43 23 53 19 53 -20z m242 30 c3
-3 2 -22 -1 -42 -5 -32 -11 -38 -46 -47 l-40 -12 0 -124 -1 -125 -51 -3 -52
-3 2 173 2 173 33 3 c23 2 38 -2 47 -14 12 -17 14 -16 46 4 34 22 51 26 61 17z
m-222 -215 l0 -110 -29 30 c-15 17 -36 30 -45 30 -9 0 -16 5 -16 10 0 6 3 10
8 10 14 0 51 65 57 103 13 71 25 37 25 -73z"/>
<path d="M4836 864 c-10 -26 -7 -69 6 -82 38 -38 94 20 70 73 -14 29 -66 35
-76 9z m44 -46 c0 -19 -2 -20 -10 -8 -13 19 -13 30 0 30 6 0 10 -10 10 -22z"/>
<path d="M4814 556 c-7 -31 1 -44 34 -57 35 -13 80 -2 93 24 17 30 -19 57 -77
57 -38 0 -44 -3 -50 -24z m84 -23 c-10 -2 -26 -2 -35 0 -10 3 -2 5 17 5 19 0
27 -2 18 -5z"/>
<path d="M4172 954 c-21 -14 -22 -22 -22 -160 0 -123 3 -150 19 -183 27 -53
81 -76 153 -65 29 5 81 7 115 5 52 -2 64 0 79 17 17 20 17 20 37 1 41 -38 115
-19 141 35 15 32 15 38 1 65 -8 17 -24 35 -34 41 -33 17 -89 12 -111 -10 l-20
-20 1 136 c0 104 -3 139 -13 145 -7 5 -41 9 -74 9 -85 0 -88 -5 -87 -153 1
-114 -5 -145 -28 -131 -4 2 -8 61 -8 131 -1 74 -6 133 -13 140 -15 18 -108 17
-136 -3z m118 -148 c0 -68 3 -131 6 -140 4 -11 19 -16 50 -16 l43 0 3 138 3
137 48 3 47 3 -2 -173 -3 -173 -24 -3 c-13 -2 -35 2 -47 9 -19 9 -30 10 -49 1
-14 -7 -48 -12 -75 -12 -44 0 -52 4 -74 33 -25 33 -26 39 -26 175 l0 142 50 0
50 0 0 -124z m364 -138 c20 -28 20 -43 0 -62 -18 -19 -65 -21 -82 -4 -29 29 1
88 44 88 13 0 30 -10 38 -22z"/>
<path d="M2511 574 c0 -11 3 -14 6 -6 3 7 2 16 -1 19 -3 4 -6 -2 -5 -13z"/>
</g>
</svg>
